<?xml version="1.0" encoding="utf-8" standalone="no"?>
<!DOCTYPE svg PUBLIC "-//W3C//DTD SVG 1.1//EN"
  "http://www.w3.org/Graphics/SVG/1.1/DTD/svg11.dtd">
<svg xmlns:xlink="http://www.w3.org/1999/xlink" width="345.290782pt" height="337.114942pt" viewBox="0 0 345.290782 337.114942" xmlns="http://www.w3.org/2000/svg" version="1.1">
 <metadata>
  <rdf:RDF xmlns:dc="http://purl.org/dc/elements/1.1/" xmlns:cc="http://creativecommons.org/ns#" xmlns:rdf="http://www.w3.org/1999/02/22-rdf-syntax-ns#">
   <cc:Work>
    <dc:type rdf:resource="http://purl.org/dc/dcmitype/StillImage"/>
    <dc:date>2024-09-10T09:55:02.579494</dc:date>
    <dc:format>image/svg+xml</dc:format>
    <dc:creator>
     <cc:Agent>
      <dc:title>Matplotlib v3.9.2, https://matplotlib.org/</dc:title>
     </cc:Agent>
    </dc:creator>
   </cc:Work>
  </rdf:RDF>
 </metadata>
 <defs>
  <style type="text/css">*{stroke-linejoin: round; stroke-linecap: butt}</style>
 </defs>
 <g id="figure_1">
  <g id="patch_1">
   <path d="M 0 337.114942 
L 345.290782 337.114942 
L 345.290782 0 
L 0 0 
L 0 337.114942 
z
" style="fill: none"/>
  </g>
  <g id="axes_1">
   <g id="patch_2">
    <path d="M 24.102403 319.237538 
L 336.139942 319.237538 
L 336.139942 7.2 
L 24.102403 7.2 
L 24.102403 319.237538 
z
" style="fill: none"/>
   </g>
   <g id="patch_3">
    <path d="M 30.103125 313.236817 
L 30.103125 13.200722 
L 67.607637 13.200722 
L 67.607637 313.236817 
L 30.103125 313.236817 
z
" clip-path="url(#p7699b327f5)" style="fill: none; stroke: #0000ff; stroke-linejoin: miter"/>
   </g>
   <g id="patch_4">
    <path d="M 67.607637 313.236817 
L 67.607637 48.455892 
L 105.112149 48.455892 
L 105.112149 313.236817 
L 67.607637 313.236817 
z
" clip-path="url(#p7699b327f5)" style="fill: none; stroke: #0000ff; stroke-linejoin: miter"/>
   </g>
   <g id="patch_5">
    <path d="M 105.112149 313.236817 
L 105.112149 79.568471 
L 142.616661 79.568471 
L 142.616661 313.236817 
L 105.112149 313.236817 
z
" clip-path="url(#p7699b327f5)" style="fill: none; stroke: #0000ff; stroke-linejoin: miter"/>
   </g>
   <g id="patch_6">
    <path d="M 142.616661 313.236817 
L 142.616661 107.025225 
L 180.121172 107.025225 
L 180.121172 313.236817 
L 142.616661 313.236817 
z
" clip-path="url(#p7699b327f5)" style="fill: none; stroke: #0000ff; stroke-linejoin: miter"/>
   </g>
   <g id="patch_7">
    <path d="M 180.121172 313.236817 
L 180.121172 131.255726 
L 217.625684 131.255726 
L 217.625684 313.236817 
L 180.121172 313.236817 
z
" clip-path="url(#p7699b327f5)" style="fill: none; stroke: #0000ff; stroke-linejoin: miter"/>
   </g>
   <g id="patch_8">
    <path d="M 217.625684 313.236817 
L 217.625684 152.639068 
L 255.130196 152.639068 
L 255.130196 313.236817 
L 217.625684 313.236817 
z
" clip-path="url(#p7699b327f5)" style="fill: none; stroke: #0000ff; stroke-linejoin: miter"/>
   </g>
   <g id="patch_9">
    <path d="M 255.130196 313.236817 
L 255.130196 171.509801 
L 292.634708 171.509801 
L 292.634708 313.236817 
L 255.130196 313.236817 
z
" clip-path="url(#p7699b327f5)" style="fill: none; stroke: #0000ff; stroke-linejoin: miter"/>
   </g>
   <g id="patch_10">
    <path d="M 292.634708 313.236817 
L 292.634708 188.163164 
L 330.13922 188.163164 
L 330.13922 313.236817 
L 292.634708 313.236817 
z
" clip-path="url(#p7699b327f5)" style="fill: none; stroke: #0000ff; stroke-linejoin: miter"/>
   </g>
   <g id="patch_11">
    <path d="M 30.103125 313.236817 
L 30.103125 13.200722 
L 31.26914 14.364474 
L 32.768455 15.854248 
L 34.305035 17.373346 
L 36.288214 19.322495 
L 37.231411 20.244998 
L 39.685272 22.631474 
L 41.262815 24.155421 
L 42.268818 25.123071 
L 43.832503 26.620715 
L 44.876811 27.616579 
L 46.977718 29.609557 
L 48.611394 31.149692 
L 49.147292 31.653081 
L 51.246469 33.616282 
L 52.042677 34.35733 
L 53.802365 35.988149 
L 56.360794 38.342217 
L 56.621686 38.581144 
L 58.691153 40.469034 
L 60.109943 41.755834 
L 61.84337 43.319766 
L 63.591175 44.887546 
L 64.327032 45.544883 
L 66.186127 47.198438 
L 67.145061 48.047356 
L 69.404595 50.036963 
L 70.674628 51.148716 
L 72.281075 52.548233 
L 74.550418 54.51253 
L 74.93389 54.842991 
L 77.560532 57.095206 
L 78.735422 58.096251 
L 80.120749 59.271572 
L 80.860916 59.897313 
L 82.433029 61.221276 
L 83.890283 62.44233 
L 85.382671 63.686691 
L 87.376442 65.33948 
L 89.365696 66.977615 
L 90.924278 68.253528 
L 91.205145 68.482753 
L 94.0565 70.797724 
L 95.519043 71.976632 
L 97.067366 73.218437 
L 97.301827 73.405925 
L 99.643223 75.270213 
L 100.312079 75.80011 
L 103.083245 77.983005 
L 103.424658 78.250549 
L 104.855355 79.368394 
L 106.78023 80.86397 
L 108.108272 81.890242 
L 110.454703 83.692432 
L 112.117342 84.960925 
L 113.126893 85.727729 
L 115.118419 87.232847 
L 115.727993 87.691546 
L 118.072554 89.447148 
L 119.396647 90.432581 
L 121.201541 91.768857 
L 121.764943 92.184335 
L 123.644542 93.564806 
L 125.629573 95.013354 
L 127.11231 96.089123 
L 127.496908 96.367294 
L 129.507855 97.815969 
L 131.763471 99.429391 
L 132.270388 99.790318 
L 134.244406 101.19003 
L 136.057785 102.467748 
L 137.617883 103.56084 
L 138.841984 104.414543 
L 140.891055 105.835819 
L 141.555451 106.294576 
L 142.633933 107.037096 
L 145.124288 108.741509 
L 146.522343 109.692163 
L 147.830757 110.577859 
L 149.504457 111.70521 
L 150.791741 112.568015 
L 152.076683 113.425567 
L 153.033656 114.061855 
L 155.784232 115.879444 
L 156.869067 116.591737 
L 158.145784 117.426726 
L 159.173791 118.096477 
L 161.316958 119.485405 
L 162.646275 120.341926 
L 164.214431 121.347472 
L 166.389737 122.733667 
L 166.93516 123.07966 
L 168.803498 124.260098 
L 169.941351 124.975413 
L 171.546922 125.980158 
L 173.828412 127.398668 
L 174.285182 127.681369 
L 176.606093 129.111185 
L 178.423446 130.223084 
L 179.37166 130.800556 
L 180.873819 131.711657 
L 182.17388 132.496507 
L 183.509947 133.299558 
L 184.923402 134.14524 
L 186.291592 134.960053 
L 188.306931 136.153524 
L 189.461867 136.833864 
L 190.886785 137.669643 
L 192.466902 138.591824 
L 194.371467 139.696922 
L 196.609467 140.986558 
L 197.933668 141.745104 
L 198.963129 142.332505 
L 199.728081 142.767676 
L 202.310891 144.228833 
L 203.396995 144.839521 
L 204.515808 145.466293 
L 206.636244 146.647793 
L 208.438721 147.645582 
L 209.128306 148.02573 
L 211.03099 149.070104 
L 213.00922 150.148945 
L 213.463082 150.39546 
L 215.306132 151.392689 
L 216.534983 152.054195 
L 218.232344 152.963461 
L 220.160036 153.989896 
L 222.216974 155.077901 
L 222.794441 155.38201 
L 225.308036 156.698937 
L 226.274749 157.202488 
L 227.086898 157.624277 
L 229.61715 158.931064 
L 231.315454 159.802019 
L 232.195004 160.251151 
L 233.758875 161.04648 
L 235.321091 161.836839 
L 236.822753 162.592694 
L 238.616627 163.490687 
L 240.345322 164.350987 
L 241.790261 165.06628 
L 243.004751 165.664835 
L 244.923141 166.60538 
L 245.682179 166.975862 
L 247.484886 167.852008 
L 249.271992 168.715389 
L 250.449986 169.281693 
L 252.43989 170.233276 
L 252.955711 170.478916 
L 254.503496 171.213459 
L 256.262533 172.043671 
L 258.116026 172.913213 
L 259.476947 173.548259 
L 260.965322 174.23949 
L 262.839853 175.105194 
L 264.020548 175.647698 
L 264.614967 175.920014 
L 266.986555 177.001135 
L 267.864328 177.399118 
L 269.845665 178.293189 
L 271.887062 179.208207 
L 273.504627 179.928842 
L 273.970667 180.135746 
L 276.223315 181.131317 
L 276.971918 181.460515 
L 278.484265 182.123069 
L 280.442532 182.976031 
L 282.207876 183.740206 
L 283.659717 184.365312 
L 284.473785 184.714497 
L 286.860342 185.732738 
L 287.643998 186.065328 
L 289.744343 186.952458 
L 291.628771 187.743123 
L 291.69867 187.772356 
L 294.382653 188.889698 
L 295.242872 189.245697 
L 296.548158 189.78394 
L 298.862477 190.732527 
L 300.484231 191.3929 
L 301.145449 191.661123 
L 303.204335 192.492535 
L 305.096234 193.251502 
L 305.920844 193.580813 
L 307.785006 194.321946 
L 309.212573 194.886397 
L 310.255967 195.297253 
L 311.42757 195.756894 
L 313.4872 196.560586 
L 314.547217 196.972072 
L 316.716711 197.809724 
L 318.642135 198.548083 
L 320.129916 199.11538 
L 321.729186 199.722058 
L 322.309022 199.94122 
L 323.738527 200.479727 
L 325.082977 200.983856 
L 327.531984 201.896378 
L 328.943556 202.418968 
L 330.13922 202.859706 
L 330.13922 313.236817 
z
" clip-path="url(#p7699b327f5)" style="fill: #808080; opacity: 0.5"/>
   </g>
   <g id="matplotlib.axis_1">
    <g id="xtick_1">
     <g id="line2d_1">
      <defs>
       <path id="m2d9dd65663" d="M 0 0 
L 0 3.5 
" style="stroke: #000000; stroke-width: 0.8"/>
      </defs>
      <g>
       <use xlink:href="#m2d9dd65663" x="30.103125" y="313.236817" style="stroke: #000000; stroke-width: 0.8"/>
      </g>
     </g>
    </g>
    <g id="xtick_2">
     <g id="line2d_2">
      <g>
       <use xlink:href="#m2d9dd65663" x="90.110344" y="313.236817" style="stroke: #000000; stroke-width: 0.8"/>
      </g>
     </g>
     <g id="text_1">
      <!-- 0.2 -->
      <g transform="translate(82.158781 327.835254) scale(0.1 -0.1)">
       <defs>
        <path id="DejaVuSans-30" d="M 2034 4250 
Q 1547 4250 1301 3770 
Q 1056 3291 1056 2328 
Q 1056 1369 1301 889 
Q 1547 409 2034 409 
Q 2525 409 2770 889 
Q 3016 1369 3016 2328 
Q 3016 3291 2770 3770 
Q 2525 4250 2034 4250 
z
M 2034 4750 
Q 2819 4750 3233 4129 
Q 3647 3509 3647 2328 
Q 3647 1150 3233 529 
Q 2819 -91 2034 -91 
Q 1250 -91 836 529 
Q 422 1150 422 2328 
Q 422 3509 836 4129 
Q 1250 4750 2034 4750 
z
" transform="scale(0.015625)"/>
        <path id="DejaVuSans-2e" d="M 684 794 
L 1344 794 
L 1344 0 
L 684 0 
L 684 794 
z
" transform="scale(0.015625)"/>
        <path id="DejaVuSans-32" d="M 1228 531 
L 3431 531 
L 3431 0 
L 469 0 
L 469 531 
Q 828 903 1448 1529 
Q 2069 2156 2228 2338 
Q 2531 2678 2651 2914 
Q 2772 3150 2772 3378 
Q 2772 3750 2511 3984 
Q 2250 4219 1831 4219 
Q 1534 4219 1204 4116 
Q 875 4013 500 3803 
L 500 4441 
Q 881 4594 1212 4672 
Q 1544 4750 1819 4750 
Q 2544 4750 2975 4387 
Q 3406 4025 3406 3419 
Q 3406 3131 3298 2873 
Q 3191 2616 2906 2266 
Q 2828 2175 2409 1742 
Q 1991 1309 1228 531 
z
" transform="scale(0.015625)"/>
       </defs>
       <use xlink:href="#DejaVuSans-30"/>
       <use xlink:href="#DejaVuSans-2e" x="63.623047"/>
       <use xlink:href="#DejaVuSans-32" x="95.410156"/>
      </g>
     </g>
    </g>
    <g id="xtick_3">
     <g id="line2d_3">
      <g>
       <use xlink:href="#m2d9dd65663" x="150.117563" y="313.236817" style="stroke: #000000; stroke-width: 0.8"/>
      </g>
     </g>
     <g id="text_2">
      <!-- 0.4 -->
      <g transform="translate(142.166 327.835254) scale(0.1 -0.1)">
       <defs>
        <path id="DejaVuSans-34" d="M 2419 4116 
L 825 1625 
L 2419 1625 
L 2419 4116 
z
M 2253 4666 
L 3047 4666 
L 3047 1625 
L 3713 1625 
L 3713 1100 
L 3047 1100 
L 3047 0 
L 2419 0 
L 2419 1100 
L 313 1100 
L 313 1709 
L 2253 4666 
z
" transform="scale(0.015625)"/>
       </defs>
       <use xlink:href="#DejaVuSans-30"/>
       <use xlink:href="#DejaVuSans-2e" x="63.623047"/>
       <use xlink:href="#DejaVuSans-34" x="95.410156"/>
      </g>
     </g>
    </g>
    <g id="xtick_4">
     <g id="line2d_4">
      <g>
       <use xlink:href="#m2d9dd65663" x="210.124782" y="313.236817" style="stroke: #000000; stroke-width: 0.8"/>
      </g>
     </g>
     <g id="text_3">
      <!-- 0.6 -->
      <g transform="translate(202.173219 327.835254) scale(0.1 -0.1)">
       <defs>
        <path id="DejaVuSans-36" d="M 2113 2584 
Q 1688 2584 1439 2293 
Q 1191 2003 1191 1497 
Q 1191 994 1439 701 
Q 1688 409 2113 409 
Q 2538 409 2786 701 
Q 3034 994 3034 1497 
Q 3034 2003 2786 2293 
Q 2538 2584 2113 2584 
z
M 3366 4563 
L 3366 3988 
Q 3128 4100 2886 4159 
Q 2644 4219 2406 4219 
Q 1781 4219 1451 3797 
Q 1122 3375 1075 2522 
Q 1259 2794 1537 2939 
Q 1816 3084 2150 3084 
Q 2853 3084 3261 2657 
Q 3669 2231 3669 1497 
Q 3669 778 3244 343 
Q 2819 -91 2113 -91 
Q 1303 -91 875 529 
Q 447 1150 447 2328 
Q 447 3434 972 4092 
Q 1497 4750 2381 4750 
Q 2619 4750 2861 4703 
Q 3103 4656 3366 4563 
z
" transform="scale(0.015625)"/>
       </defs>
       <use xlink:href="#DejaVuSans-30"/>
       <use xlink:href="#DejaVuSans-2e" x="63.623047"/>
       <use xlink:href="#DejaVuSans-36" x="95.410156"/>
      </g>
     </g>
    </g>
    <g id="xtick_5">
     <g id="line2d_5">
      <g>
       <use xlink:href="#m2d9dd65663" x="270.132001" y="313.236817" style="stroke: #000000; stroke-width: 0.8"/>
      </g>
     </g>
     <g id="text_4">
      <!-- 0.8 -->
      <g transform="translate(262.180438 327.835254) scale(0.1 -0.1)">
       <defs>
        <path id="DejaVuSans-38" d="M 2034 2216 
Q 1584 2216 1326 1975 
Q 1069 1734 1069 1313 
Q 1069 891 1326 650 
Q 1584 409 2034 409 
Q 2484 409 2743 651 
Q 3003 894 3003 1313 
Q 3003 1734 2745 1975 
Q 2488 2216 2034 2216 
z
M 1403 2484 
Q 997 2584 770 2862 
Q 544 3141 544 3541 
Q 544 4100 942 4425 
Q 1341 4750 2034 4750 
Q 2731 4750 3128 4425 
Q 3525 4100 3525 3541 
Q 3525 3141 3298 2862 
Q 3072 2584 2669 2484 
Q 3125 2378 3379 2068 
Q 3634 1759 3634 1313 
Q 3634 634 3220 271 
Q 2806 -91 2034 -91 
Q 1263 -91 848 271 
Q 434 634 434 1313 
Q 434 1759 690 2068 
Q 947 2378 1403 2484 
z
M 1172 3481 
Q 1172 3119 1398 2916 
Q 1625 2713 2034 2713 
Q 2441 2713 2670 2916 
Q 2900 3119 2900 3481 
Q 2900 3844 2670 4047 
Q 2441 4250 2034 4250 
Q 1625 4250 1398 4047 
Q 1172 3844 1172 3481 
z
" transform="scale(0.015625)"/>
       </defs>
       <use xlink:href="#DejaVuSans-30"/>
       <use xlink:href="#DejaVuSans-2e" x="63.623047"/>
       <use xlink:href="#DejaVuSans-38" x="95.410156"/>
      </g>
     </g>
    </g>
    <g id="xtick_6">
     <g id="line2d_6">
      <g>
       <use xlink:href="#m2d9dd65663" x="330.13922" y="313.236817" style="stroke: #000000; stroke-width: 0.8"/>
      </g>
     </g>
     <g id="text_5">
      <!-- 1.0 -->
      <g transform="translate(322.187657 327.835254) scale(0.1 -0.1)">
       <defs>
        <path id="DejaVuSans-31" d="M 794 531 
L 1825 531 
L 1825 4091 
L 703 3866 
L 703 4441 
L 1819 4666 
L 2450 4666 
L 2450 531 
L 3481 531 
L 3481 0 
L 794 0 
L 794 531 
z
" transform="scale(0.015625)"/>
       </defs>
       <use xlink:href="#DejaVuSans-31"/>
       <use xlink:href="#DejaVuSans-2e" x="63.623047"/>
       <use xlink:href="#DejaVuSans-30" x="95.410156"/>
      </g>
     </g>
    </g>
    <g id="xtick_7">
     <g id="line2d_7">
      <defs>
       <path id="mec40cf717b" d="M 0 0 
L 0 2 
" style="stroke: #000000; stroke-width: 0.6"/>
      </defs>
      <g>
       <use xlink:href="#mec40cf717b" x="45.10493" y="313.236817" style="stroke: #000000; stroke-width: 0.6"/>
      </g>
     </g>
    </g>
    <g id="xtick_8">
     <g id="line2d_8">
      <g>
       <use xlink:href="#mec40cf717b" x="60.106734" y="313.236817" style="stroke: #000000; stroke-width: 0.6"/>
      </g>
     </g>
    </g>
    <g id="xtick_9">
     <g id="line2d_9">
      <g>
       <use xlink:href="#mec40cf717b" x="75.108539" y="313.236817" style="stroke: #000000; stroke-width: 0.6"/>
      </g>
     </g>
    </g>
    <g id="xtick_10">
     <g id="line2d_10">
      <g>
       <use xlink:href="#mec40cf717b" x="105.112149" y="313.236817" style="stroke: #000000; stroke-width: 0.6"/>
      </g>
     </g>
    </g>
    <g id="xtick_11">
     <g id="line2d_11">
      <g>
       <use xlink:href="#mec40cf717b" x="120.113953" y="313.236817" style="stroke: #000000; stroke-width: 0.6"/>
      </g>
     </g>
    </g>
    <g id="xtick_12">
     <g id="line2d_12">
      <g>
       <use xlink:href="#mec40cf717b" x="135.115758" y="313.236817" style="stroke: #000000; stroke-width: 0.6"/>
      </g>
     </g>
    </g>
    <g id="xtick_13">
     <g id="line2d_13">
      <g>
       <use xlink:href="#mec40cf717b" x="165.119368" y="313.236817" style="stroke: #000000; stroke-width: 0.6"/>
      </g>
     </g>
    </g>
    <g id="xtick_14">
     <g id="line2d_14">
      <g>
       <use xlink:href="#mec40cf717b" x="180.121172" y="313.236817" style="stroke: #000000; stroke-width: 0.6"/>
      </g>
     </g>
    </g>
    <g id="xtick_15">
     <g id="line2d_15">
      <g>
       <use xlink:href="#mec40cf717b" x="195.122977" y="313.236817" style="stroke: #000000; stroke-width: 0.6"/>
      </g>
     </g>
    </g>
    <g id="xtick_16">
     <g id="line2d_16">
      <g>
       <use xlink:href="#mec40cf717b" x="225.126587" y="313.236817" style="stroke: #000000; stroke-width: 0.6"/>
      </g>
     </g>
    </g>
    <g id="xtick_17">
     <g id="line2d_17">
      <g>
       <use xlink:href="#mec40cf717b" x="240.128391" y="313.236817" style="stroke: #000000; stroke-width: 0.6"/>
      </g>
     </g>
    </g>
    <g id="xtick_18">
     <g id="line2d_18">
      <g>
       <use xlink:href="#mec40cf717b" x="255.130196" y="313.236817" style="stroke: #000000; stroke-width: 0.6"/>
      </g>
     </g>
    </g>
    <g id="xtick_19">
     <g id="line2d_19">
      <g>
       <use xlink:href="#mec40cf717b" x="285.133805" y="313.236817" style="stroke: #000000; stroke-width: 0.6"/>
      </g>
     </g>
    </g>
    <g id="xtick_20">
     <g id="line2d_20">
      <g>
       <use xlink:href="#mec40cf717b" x="300.13561" y="313.236817" style="stroke: #000000; stroke-width: 0.6"/>
      </g>
     </g>
    </g>
    <g id="xtick_21">
     <g id="line2d_21">
      <g>
       <use xlink:href="#mec40cf717b" x="315.137415" y="313.236817" style="stroke: #000000; stroke-width: 0.6"/>
      </g>
     </g>
    </g>
   </g>
   <g id="matplotlib.axis_2">
    <g id="ytick_1">
     <g id="line2d_22">
      <defs>
       <path id="m135ac4fde5" d="M 0 0 
L -3.5 0 
" style="stroke: #000000; stroke-width: 0.8"/>
      </defs>
      <g>
       <use xlink:href="#m135ac4fde5" x="30.103125" y="313.236817" style="stroke: #000000; stroke-width: 0.8"/>
      </g>
     </g>
    </g>
    <g id="ytick_2">
     <g id="line2d_23">
      <g>
       <use xlink:href="#m135ac4fde5" x="30.103125" y="253.229598" style="stroke: #000000; stroke-width: 0.8"/>
      </g>
     </g>
     <g id="text_6">
      <!-- 0.2 -->
      <g transform="translate(7.2 257.028816) scale(0.1 -0.1)">
       <use xlink:href="#DejaVuSans-30"/>
       <use xlink:href="#DejaVuSans-2e" x="63.623047"/>
       <use xlink:href="#DejaVuSans-32" x="95.410156"/>
      </g>
     </g>
    </g>
    <g id="ytick_3">
     <g id="line2d_24">
      <g>
       <use xlink:href="#m135ac4fde5" x="30.103125" y="193.222379" style="stroke: #000000; stroke-width: 0.8"/>
      </g>
     </g>
     <g id="text_7">
      <!-- 0.4 -->
      <g transform="translate(7.2 197.021597) scale(0.1 -0.1)">
       <use xlink:href="#DejaVuSans-30"/>
       <use xlink:href="#DejaVuSans-2e" x="63.623047"/>
       <use xlink:href="#DejaVuSans-34" x="95.410156"/>
      </g>
     </g>
    </g>
    <g id="ytick_4">
     <g id="line2d_25">
      <g>
       <use xlink:href="#m135ac4fde5" x="30.103125" y="133.21516" style="stroke: #000000; stroke-width: 0.8"/>
      </g>
     </g>
     <g id="text_8">
      <!-- 0.6 -->
      <g transform="translate(7.2 137.014379) scale(0.1 -0.1)">
       <use xlink:href="#DejaVuSans-30"/>
       <use xlink:href="#DejaVuSans-2e" x="63.623047"/>
       <use xlink:href="#DejaVuSans-36" x="95.410156"/>
      </g>
     </g>
    </g>
    <g id="ytick_5">
     <g id="line2d_26">
      <g>
       <use xlink:href="#m135ac4fde5" x="30.103125" y="73.207941" style="stroke: #000000; stroke-width: 0.8"/>
      </g>
     </g>
     <g id="text_9">
      <!-- 0.8 -->
      <g transform="translate(7.2 77.00716) scale(0.1 -0.1)">
       <use xlink:href="#DejaVuSans-30"/>
       <use xlink:href="#DejaVuSans-2e" x="63.623047"/>
       <use xlink:href="#DejaVuSans-38" x="95.410156"/>
      </g>
     </g>
    </g>
    <g id="ytick_6">
     <g id="line2d_27">
      <g>
       <use xlink:href="#m135ac4fde5" x="30.103125" y="13.200722" style="stroke: #000000; stroke-width: 0.8"/>
      </g>
     </g>
     <g id="text_10">
      <!-- 1.0 -->
      <g transform="translate(7.2 16.999941) scale(0.1 -0.1)">
       <use xlink:href="#DejaVuSans-31"/>
       <use xlink:href="#DejaVuSans-2e" x="63.623047"/>
       <use xlink:href="#DejaVuSans-30" x="95.410156"/>
      </g>
     </g>
    </g>
    <g id="ytick_7">
     <g id="line2d_28">
      <defs>
       <path id="m4506ede23d" d="M 0 0 
L -2 0 
" style="stroke: #000000; stroke-width: 0.6"/>
      </defs>
      <g>
       <use xlink:href="#m4506ede23d" x="30.103125" y="298.235012" style="stroke: #000000; stroke-width: 0.6"/>
      </g>
     </g>
    </g>
    <g id="ytick_8">
     <g id="line2d_29">
      <g>
       <use xlink:href="#m4506ede23d" x="30.103125" y="283.233207" style="stroke: #000000; stroke-width: 0.6"/>
      </g>
     </g>
    </g>
    <g id="ytick_9">
     <g id="line2d_30">
      <g>
       <use xlink:href="#m4506ede23d" x="30.103125" y="268.231402" style="stroke: #000000; stroke-width: 0.6"/>
      </g>
     </g>
    </g>
    <g id="ytick_10">
     <g id="line2d_31">
      <g>
       <use xlink:href="#m4506ede23d" x="30.103125" y="238.227793" style="stroke: #000000; stroke-width: 0.6"/>
      </g>
     </g>
    </g>
    <g id="ytick_11">
     <g id="line2d_32">
      <g>
       <use xlink:href="#m4506ede23d" x="30.103125" y="223.225988" style="stroke: #000000; stroke-width: 0.6"/>
      </g>
     </g>
    </g>
    <g id="ytick_12">
     <g id="line2d_33">
      <g>
       <use xlink:href="#m4506ede23d" x="30.103125" y="208.224183" style="stroke: #000000; stroke-width: 0.6"/>
      </g>
     </g>
    </g>
    <g id="ytick_13">
     <g id="line2d_34">
      <g>
       <use xlink:href="#m4506ede23d" x="30.103125" y="178.220574" style="stroke: #000000; stroke-width: 0.6"/>
      </g>
     </g>
    </g>
    <g id="ytick_14">
     <g id="line2d_35">
      <g>
       <use xlink:href="#m4506ede23d" x="30.103125" y="163.218769" style="stroke: #000000; stroke-width: 0.6"/>
      </g>
     </g>
    </g>
    <g id="ytick_15">
     <g id="line2d_36">
      <g>
       <use xlink:href="#m4506ede23d" x="30.103125" y="148.216964" style="stroke: #000000; stroke-width: 0.6"/>
      </g>
     </g>
    </g>
    <g id="ytick_16">
     <g id="line2d_37">
      <g>
       <use xlink:href="#m4506ede23d" x="30.103125" y="118.213355" style="stroke: #000000; stroke-width: 0.6"/>
      </g>
     </g>
    </g>
    <g id="ytick_17">
     <g id="line2d_38">
      <g>
       <use xlink:href="#m4506ede23d" x="30.103125" y="103.21155" style="stroke: #000000; stroke-width: 0.6"/>
      </g>
     </g>
    </g>
    <g id="ytick_18">
     <g id="line2d_39">
      <g>
       <use xlink:href="#m4506ede23d" x="30.103125" y="88.209746" style="stroke: #000000; stroke-width: 0.6"/>
      </g>
     </g>
    </g>
    <g id="ytick_19">
     <g id="line2d_40">
      <g>
       <use xlink:href="#m4506ede23d" x="30.103125" y="58.206136" style="stroke: #000000; stroke-width: 0.6"/>
      </g>
     </g>
    </g>
    <g id="ytick_20">
     <g id="line2d_41">
      <g>
       <use xlink:href="#m4506ede23d" x="30.103125" y="43.204331" style="stroke: #000000; stroke-width: 0.6"/>
      </g>
     </g>
    </g>
    <g id="ytick_21">
     <g id="line2d_42">
      <g>
       <use xlink:href="#m4506ede23d" x="30.103125" y="28.202527" style="stroke: #000000; stroke-width: 0.6"/>
      </g>
     </g>
    </g>
   </g>
   <g id="line2d_43">
    <path d="M 30.103125 13.200722 
L 39.685272 22.631474 
L 49.147292 31.653081 
L 60.109943 41.755834 
L 70.674628 51.148716 
L 80.860916 59.897313 
L 91.205145 68.482753 
L 100.312079 75.80011 
L 112.117342 84.960925 
L 121.764943 92.184335 
L 132.270388 99.790318 
L 142.633933 107.037096 
L 153.033656 114.061855 
L 164.214431 121.347472 
L 174.285182 127.681369 
L 186.291592 134.960053 
L 197.933668 141.745104 
L 209.128306 148.02573 
L 220.160036 153.989896 
L 232.195004 160.251151 
L 244.923141 166.60538 
L 256.262533 172.043671 
L 267.864328 177.399118 
L 280.442532 182.976031 
L 294.382653 188.889698 
L 307.785006 194.321946 
L 321.729186 199.722058 
L 330.13922 202.859706 
L 330.13922 202.859706 
" clip-path="url(#p7699b327f5)" style="fill: none; stroke: #ff0000; stroke-linecap: square"/>
   </g>
   <g id="patch_12">
    <path d="M 30.103125 319.237538 
L 30.103125 7.2 
" style="fill: none; stroke: #000000; stroke-width: 0.8; stroke-linejoin: miter; stroke-linecap: square"/>
   </g>
   <g id="patch_13">
    <path d="M 24.102403 313.236817 
L 336.139942 313.236817 
" style="fill: none; stroke: #000000; stroke-width: 0.8; stroke-linejoin: miter; stroke-linecap: square"/>
   </g>
  </g>
 </g>
 <defs>
  <clipPath id="p7699b327f5">
   <rect x="24.102403" y="7.2" width="312.037538" height="312.037538"/>
  </clipPath>
 </defs>
</svg>
