<?xml version="1.0" encoding="utf-8" standalone="no"?>
<!DOCTYPE svg PUBLIC "-//W3C//DTD SVG 1.1//EN"
  "http://www.w3.org/Graphics/SVG/1.1/DTD/svg11.dtd">
<svg xmlns:xlink="http://www.w3.org/1999/xlink" width="453.573125pt" height="337.114942pt" viewBox="0 0 453.573125 337.114942" xmlns="http://www.w3.org/2000/svg" version="1.1">
 <metadata>
  <rdf:RDF xmlns:dc="http://purl.org/dc/elements/1.1/" xmlns:cc="http://creativecommons.org/ns#" xmlns:rdf="http://www.w3.org/1999/02/22-rdf-syntax-ns#">
   <cc:Work>
    <dc:type rdf:resource="http://purl.org/dc/dcmitype/StillImage"/>
    <dc:date>2024-09-10T14:27:53.974516</dc:date>
    <dc:format>image/svg+xml</dc:format>
    <dc:creator>
     <cc:Agent>
      <dc:title>Matplotlib v3.9.2, https://matplotlib.org/</dc:title>
     </cc:Agent>
    </dc:creator>
   </cc:Work>
  </rdf:RDF>
 </metadata>
 <defs>
  <style type="text/css">*{stroke-linejoin: round; stroke-linecap: butt}</style>
 </defs>
 <g id="figure_1">
  <g id="patch_1">
   <path d="M 0 337.114942 
L 453.573125 337.114942 
L 453.573125 0 
L 0 0 
L 0 337.114942 
z
" style="fill: none"/>
  </g>
  <g id="axes_1">
   <g id="patch_2">
    <path d="M 40.103125 319.237538 
L 446.373125 319.237538 
L 446.373125 7.2 
L 40.103125 7.2 
L 40.103125 319.237538 
z
" style="fill: none"/>
   </g>
   <g id="patch_3">
    <path d="M 58.767238 313.236817 
L 58.767238 73.207941 
L 59.987649 78.488259 
L 61.474736 84.616579 
L 62.961822 90.433068 
L 64.582787 96.445169 
L 66.536231 103.272889 
L 67.856262 107.648265 
L 69.828747 113.856702 
L 71.672665 119.330673 
L 73.257841 123.801798 
L 74.801752 127.962677 
L 76.345664 131.9447 
L 78.395674 136.974851 
L 79.721848 140.08284 
L 81.980908 145.132098 
L 83.270489 147.884592 
L 86.053738 153.528465 
L 88.096688 157.431962 
L 89.65589 160.285117 
L 92.083925 164.525841 
L 92.582761 165.368135 
L 95.584369 170.241616 
L 97.861138 173.729211 
L 99.588969 176.264454 
L 100.85608 178.065889 
L 103.038309 181.059721 
L 104.180882 182.574944 
L 106.188828 185.155272 
L 108.917614 188.502832 
L 110.887948 190.813181 
L 111.740275 191.786283 
L 113.623145 193.882071 
L 115.614086 196.020881 
L 118.012809 198.498099 
L 120.736312 201.18677 
L 120.962825 201.40472 
L 124.04427 204.287639 
L 126.10201 206.131438 
L 127.49843 207.347531 
L 128.503198 208.205603 
L 130.480065 209.853888 
L 134.095146 212.738021 
L 135.914179 214.129241 
L 137.06111 214.986801 
L 139.257457 216.588263 
L 140.570779 217.521167 
L 143.284522 219.392906 
L 144.689314 220.33336 
L 145.882412 221.117415 
L 148.542204 222.818565 
L 150.226088 223.863439 
L 151.804006 224.820877 
L 153.719939 225.956192 
L 156.289839 227.434018 
L 157.572193 228.152878 
L 159.527315 229.225988 
L 162.270971 230.687049 
L 164.668828 231.922972 
L 164.774226 231.976448 
L 167.987445 233.573666 
L 170.363697 234.715039 
L 171.647527 235.318191 
L 174.019382 236.408472 
L 175.404865 237.031341 
L 177.834361 238.099523 
L 178.190826 238.253737 
L 180.89502 239.403325 
L 183.060081 240.29862 
L 183.970256 240.668546 
L 185.895698 241.438875 
L 189.188238 242.718934 
L 190.84288 243.345139 
L 193.242565 244.233798 
L 193.554206 244.347551 
L 195.732557 245.132322 
L 198.936758 246.254707 
L 199.180148 246.338453 
L 201.75793 247.212735 
L 203.369988 247.747962 
L 206.628657 248.803816 
L 207.716263 249.148678 
L 209.771085 249.790253 
L 211.878117 250.434926 
L 212.940197 250.754942 
L 216.154939 251.704004 
L 217.447825 252.077612 
L 218.59944 252.406597 
L 221.387235 253.188528 
L 223.83779 253.859452 
L 224.588668 254.062041 
L 226.130558 254.473742 
L 229.478877 255.348345 
L 230.994596 255.735758 
L 231.814795 255.943244 
L 234.932108 256.718356 
L 236.540469 257.110125 
L 237.829595 257.420235 
L 239.481975 257.812753 
L 242.102024 258.423945 
L 243.279782 258.694317 
L 246.448383 259.408648 
L 248.396363 259.838589 
L 248.71559 259.908392 
L 251.856025 260.58548 
L 253.875756 261.01193 
L 255.05528 261.257797 
L 256.908643 261.639481 
L 259.636874 262.191246 
L 261.657021 262.592261 
L 262.045161 262.66859 
L 264.60558 263.166393 
L 267.285354 263.677012 
L 267.947639 263.801606 
L 271.152699 264.395822 
L 272.119244 264.572226 
L 274.293947 264.964508 
L 277.016217 265.446739 
L 278.285252 265.668262 
L 280.77658 266.097229 
L 282.556481 266.398992 
L 284.072298 266.652953 
L 286.021987 266.975583 
L 288.012457 267.300385 
L 290.481363 267.696974 
L 291.254179 267.81971 
L 294.422347 268.316031 
L 295.98322 268.556588 
L 296.389649 268.618804 
L 298.979462 269.011214 
L 301.082692 269.324853 
L 303.414659 269.667443 
L 304.901134 269.883045 
L 306.972351 270.179927 
L 309.25869 270.502957 
L 311.195782 270.772874 
L 313.232178 271.052976 
L 314.346571 271.204699 
L 316.368825 271.477258 
L 319.251655 271.85975 
L 320.395096 272.009527 
L 323.063274 272.354845 
L 324.728245 272.567411 
L 325.417451 272.654756 
L 328.428724 273.032024 
L 330.123907 273.241336 
L 330.823841 273.327125 
L 332.6938 273.554527 
L 335.882262 273.936351 
L 337.797053 274.16214 
L 338.739115 274.272277 
L 341.19781 274.55682 
L 342.28774 274.681632 
L 345.308037 275.023325 
L 347.552446 275.273344 
L 348.947074 275.427058 
L 350.498436 275.596592 
L 353.081373 275.87551 
L 354.704687 276.048697 
L 356.36117 276.223776 
L 358.305385 276.427175 
L 361.189199 276.724788 
L 361.661203 276.773042 
L 363.933589 277.003578 
L 365.845066 277.195254 
L 368.409277 277.449221 
L 369.627002 277.568579 
L 371.707553 277.770676 
L 372.859218 277.881564 
L 375.908956 278.171884 
L 376.661763 278.242815 
L 380.114784 278.564524 
L 382.085623 278.745504 
L 383.909739 278.911335 
L 385.180873 279.025955 
L 386.359925 279.131589 
L 389.615231 279.419883 
L 390.050068 279.458024 
L 393.268893 279.737704 
L 394.601536 279.852145 
L 396.959663 280.052746 
L 398.089966 280.148046 
L 400.386802 280.340024 
L 403.059622 280.560643 
L 403.471304 280.594361 
L 406.884154 280.871228 
L 407.398847 280.912575 
L 409.519714 281.081844 
L 412.31316 281.302106 
L 413.944914 281.429378 
L 416.533653 281.629224 
L 416.966413 281.662388 
L 419.995833 281.892606 
L 421.028528 281.97032 
L 423.938022 282.18721 
L 425.256093 282.284479 
L 427.923558 282.479477 
L 428.549626 282.524888 
L 430.396799 282.658093 
L 433.569917 282.884239 
L 435.231982 283.001364 
L 436.409657 283.083808 
L 438.56024 283.233207 
L 438.56024 313.236817 
z
" clip-path="url(#p0d79266b8d)" style="fill: #808080; opacity: 0.5"/>
   </g>
   <g id="matplotlib.axis_1">
    <g id="xtick_1">
     <g id="line2d_1">
      <defs>
       <path id="m1aa8f0ca76" d="M 0 0 
L 0 3.5 
" style="stroke: #000000; stroke-width: 0.8"/>
      </defs>
      <g>
       <use xlink:href="#m1aa8f0ca76" x="58.767238" y="313.236817" style="stroke: #000000; stroke-width: 0.8"/>
      </g>
     </g>
     <g id="text_1">
      <!-- 1 -->
      <g transform="translate(55.585988 327.835254) scale(0.1 -0.1)">
       <defs>
        <path id="DejaVuSans-31" d="M 794 531 
L 1825 531 
L 1825 4091 
L 703 3866 
L 703 4441 
L 1819 4666 
L 2450 4666 
L 2450 531 
L 3481 531 
L 3481 0 
L 794 0 
L 794 531 
z
" transform="scale(0.015625)"/>
       </defs>
       <use xlink:href="#DejaVuSans-31"/>
      </g>
     </g>
    </g>
    <g id="xtick_2">
     <g id="line2d_2">
      <g>
       <use xlink:href="#m1aa8f0ca76" x="113.023381" y="313.236817" style="stroke: #000000; stroke-width: 0.8"/>
      </g>
     </g>
     <g id="text_2">
      <!-- 2 -->
      <g transform="translate(109.842131 327.835254) scale(0.1 -0.1)">
       <defs>
        <path id="DejaVuSans-32" d="M 1228 531 
L 3431 531 
L 3431 0 
L 469 0 
L 469 531 
Q 828 903 1448 1529 
Q 2069 2156 2228 2338 
Q 2531 2678 2651 2914 
Q 2772 3150 2772 3378 
Q 2772 3750 2511 3984 
Q 2250 4219 1831 4219 
Q 1534 4219 1204 4116 
Q 875 4013 500 3803 
L 500 4441 
Q 881 4594 1212 4672 
Q 1544 4750 1819 4750 
Q 2544 4750 2975 4387 
Q 3406 4025 3406 3419 
Q 3406 3131 3298 2873 
Q 3191 2616 2906 2266 
Q 2828 2175 2409 1742 
Q 1991 1309 1228 531 
z
" transform="scale(0.015625)"/>
       </defs>
       <use xlink:href="#DejaVuSans-32"/>
      </g>
     </g>
    </g>
    <g id="xtick_3">
     <g id="line2d_3">
      <g>
       <use xlink:href="#m1aa8f0ca76" x="167.279525" y="313.236817" style="stroke: #000000; stroke-width: 0.8"/>
      </g>
     </g>
     <g id="text_3">
      <!-- 3 -->
      <g transform="translate(164.098275 327.835254) scale(0.1 -0.1)">
       <defs>
        <path id="DejaVuSans-33" d="M 2597 2516 
Q 3050 2419 3304 2112 
Q 3559 1806 3559 1356 
Q 3559 666 3084 287 
Q 2609 -91 1734 -91 
Q 1441 -91 1130 -33 
Q 819 25 488 141 
L 488 750 
Q 750 597 1062 519 
Q 1375 441 1716 441 
Q 2309 441 2620 675 
Q 2931 909 2931 1356 
Q 2931 1769 2642 2001 
Q 2353 2234 1838 2234 
L 1294 2234 
L 1294 2753 
L 1863 2753 
Q 2328 2753 2575 2939 
Q 2822 3125 2822 3475 
Q 2822 3834 2567 4026 
Q 2313 4219 1838 4219 
Q 1578 4219 1281 4162 
Q 984 4106 628 3988 
L 628 4550 
Q 988 4650 1302 4700 
Q 1616 4750 1894 4750 
Q 2613 4750 3031 4423 
Q 3450 4097 3450 3541 
Q 3450 3153 3228 2886 
Q 3006 2619 2597 2516 
z
" transform="scale(0.015625)"/>
       </defs>
       <use xlink:href="#DejaVuSans-33"/>
      </g>
     </g>
    </g>
    <g id="xtick_4">
     <g id="line2d_4">
      <g>
       <use xlink:href="#m1aa8f0ca76" x="221.535668" y="313.236817" style="stroke: #000000; stroke-width: 0.8"/>
      </g>
     </g>
     <g id="text_4">
      <!-- 4 -->
      <g transform="translate(218.354418 327.835254) scale(0.1 -0.1)">
       <defs>
        <path id="DejaVuSans-34" d="M 2419 4116 
L 825 1625 
L 2419 1625 
L 2419 4116 
z
M 2253 4666 
L 3047 4666 
L 3047 1625 
L 3713 1625 
L 3713 1100 
L 3047 1100 
L 3047 0 
L 2419 0 
L 2419 1100 
L 313 1100 
L 313 1709 
L 2253 4666 
z
" transform="scale(0.015625)"/>
       </defs>
       <use xlink:href="#DejaVuSans-34"/>
      </g>
     </g>
    </g>
    <g id="xtick_5">
     <g id="line2d_5">
      <g>
       <use xlink:href="#m1aa8f0ca76" x="275.791811" y="313.236817" style="stroke: #000000; stroke-width: 0.8"/>
      </g>
     </g>
     <g id="text_5">
      <!-- 5 -->
      <g transform="translate(272.610561 327.835254) scale(0.1 -0.1)">
       <defs>
        <path id="DejaVuSans-35" d="M 691 4666 
L 3169 4666 
L 3169 4134 
L 1269 4134 
L 1269 2991 
Q 1406 3038 1543 3061 
Q 1681 3084 1819 3084 
Q 2600 3084 3056 2656 
Q 3513 2228 3513 1497 
Q 3513 744 3044 326 
Q 2575 -91 1722 -91 
Q 1428 -91 1123 -41 
Q 819 9 494 109 
L 494 744 
Q 775 591 1075 516 
Q 1375 441 1709 441 
Q 2250 441 2565 725 
Q 2881 1009 2881 1497 
Q 2881 1984 2565 2268 
Q 2250 2553 1709 2553 
Q 1456 2553 1204 2497 
Q 953 2441 691 2322 
L 691 4666 
z
" transform="scale(0.015625)"/>
       </defs>
       <use xlink:href="#DejaVuSans-35"/>
      </g>
     </g>
    </g>
    <g id="xtick_6">
     <g id="line2d_6">
      <g>
       <use xlink:href="#m1aa8f0ca76" x="330.047954" y="313.236817" style="stroke: #000000; stroke-width: 0.8"/>
      </g>
     </g>
     <g id="text_6">
      <!-- 6 -->
      <g transform="translate(326.866704 327.835254) scale(0.1 -0.1)">
       <defs>
        <path id="DejaVuSans-36" d="M 2113 2584 
Q 1688 2584 1439 2293 
Q 1191 2003 1191 1497 
Q 1191 994 1439 701 
Q 1688 409 2113 409 
Q 2538 409 2786 701 
Q 3034 994 3034 1497 
Q 3034 2003 2786 2293 
Q 2538 2584 2113 2584 
z
M 3366 4563 
L 3366 3988 
Q 3128 4100 2886 4159 
Q 2644 4219 2406 4219 
Q 1781 4219 1451 3797 
Q 1122 3375 1075 2522 
Q 1259 2794 1537 2939 
Q 1816 3084 2150 3084 
Q 2853 3084 3261 2657 
Q 3669 2231 3669 1497 
Q 3669 778 3244 343 
Q 2819 -91 2113 -91 
Q 1303 -91 875 529 
Q 447 1150 447 2328 
Q 447 3434 972 4092 
Q 1497 4750 2381 4750 
Q 2619 4750 2861 4703 
Q 3103 4656 3366 4563 
z
" transform="scale(0.015625)"/>
       </defs>
       <use xlink:href="#DejaVuSans-36"/>
      </g>
     </g>
    </g>
    <g id="xtick_7">
     <g id="line2d_7">
      <g>
       <use xlink:href="#m1aa8f0ca76" x="384.304097" y="313.236817" style="stroke: #000000; stroke-width: 0.8"/>
      </g>
     </g>
     <g id="text_7">
      <!-- 7 -->
      <g transform="translate(381.122847 327.835254) scale(0.1 -0.1)">
       <defs>
        <path id="DejaVuSans-37" d="M 525 4666 
L 3525 4666 
L 3525 4397 
L 1831 0 
L 1172 0 
L 2766 4134 
L 525 4134 
L 525 4666 
z
" transform="scale(0.015625)"/>
       </defs>
       <use xlink:href="#DejaVuSans-37"/>
      </g>
     </g>
    </g>
    <g id="xtick_8">
     <g id="line2d_8">
      <g>
       <use xlink:href="#m1aa8f0ca76" x="438.56024" y="313.236817" style="stroke: #000000; stroke-width: 0.8"/>
      </g>
     </g>
     <g id="text_8">
      <!-- 8 -->
      <g transform="translate(435.37899 327.835254) scale(0.1 -0.1)">
       <defs>
        <path id="DejaVuSans-38" d="M 2034 2216 
Q 1584 2216 1326 1975 
Q 1069 1734 1069 1313 
Q 1069 891 1326 650 
Q 1584 409 2034 409 
Q 2484 409 2743 651 
Q 3003 894 3003 1313 
Q 3003 1734 2745 1975 
Q 2488 2216 2034 2216 
z
M 1403 2484 
Q 997 2584 770 2862 
Q 544 3141 544 3541 
Q 544 4100 942 4425 
Q 1341 4750 2034 4750 
Q 2731 4750 3128 4425 
Q 3525 4100 3525 3541 
Q 3525 3141 3298 2862 
Q 3072 2584 2669 2484 
Q 3125 2378 3379 2068 
Q 3634 1759 3634 1313 
Q 3634 634 3220 271 
Q 2806 -91 2034 -91 
Q 1263 -91 848 271 
Q 434 634 434 1313 
Q 434 1759 690 2068 
Q 947 2378 1403 2484 
z
M 1172 3481 
Q 1172 3119 1398 2916 
Q 1625 2713 2034 2713 
Q 2441 2713 2670 2916 
Q 2900 3119 2900 3481 
Q 2900 3844 2670 4047 
Q 2441 4250 2034 4250 
Q 1625 4250 1398 4047 
Q 1172 3844 1172 3481 
z
" transform="scale(0.015625)"/>
       </defs>
       <use xlink:href="#DejaVuSans-38"/>
      </g>
     </g>
    </g>
    <g id="xtick_9">
     <g id="line2d_9">
      <defs>
       <path id="m828ee5909c" d="M 0 0 
L 0 2 
" style="stroke: #000000; stroke-width: 0.6"/>
      </defs>
      <g>
       <use xlink:href="#m828ee5909c" x="47.91601" y="313.236817" style="stroke: #000000; stroke-width: 0.6"/>
      </g>
     </g>
    </g>
    <g id="xtick_10">
     <g id="line2d_10">
      <g>
       <use xlink:href="#m828ee5909c" x="69.618467" y="313.236817" style="stroke: #000000; stroke-width: 0.6"/>
      </g>
     </g>
    </g>
    <g id="xtick_11">
     <g id="line2d_11">
      <g>
       <use xlink:href="#m828ee5909c" x="80.469696" y="313.236817" style="stroke: #000000; stroke-width: 0.6"/>
      </g>
     </g>
    </g>
    <g id="xtick_12">
     <g id="line2d_12">
      <g>
       <use xlink:href="#m828ee5909c" x="91.320924" y="313.236817" style="stroke: #000000; stroke-width: 0.6"/>
      </g>
     </g>
    </g>
    <g id="xtick_13">
     <g id="line2d_13">
      <g>
       <use xlink:href="#m828ee5909c" x="102.172153" y="313.236817" style="stroke: #000000; stroke-width: 0.6"/>
      </g>
     </g>
    </g>
    <g id="xtick_14">
     <g id="line2d_14">
      <g>
       <use xlink:href="#m828ee5909c" x="123.87461" y="313.236817" style="stroke: #000000; stroke-width: 0.6"/>
      </g>
     </g>
    </g>
    <g id="xtick_15">
     <g id="line2d_15">
      <g>
       <use xlink:href="#m828ee5909c" x="134.725839" y="313.236817" style="stroke: #000000; stroke-width: 0.6"/>
      </g>
     </g>
    </g>
    <g id="xtick_16">
     <g id="line2d_16">
      <g>
       <use xlink:href="#m828ee5909c" x="145.577067" y="313.236817" style="stroke: #000000; stroke-width: 0.6"/>
      </g>
     </g>
    </g>
    <g id="xtick_17">
     <g id="line2d_17">
      <g>
       <use xlink:href="#m828ee5909c" x="156.428296" y="313.236817" style="stroke: #000000; stroke-width: 0.6"/>
      </g>
     </g>
    </g>
    <g id="xtick_18">
     <g id="line2d_18">
      <g>
       <use xlink:href="#m828ee5909c" x="178.130753" y="313.236817" style="stroke: #000000; stroke-width: 0.6"/>
      </g>
     </g>
    </g>
    <g id="xtick_19">
     <g id="line2d_19">
      <g>
       <use xlink:href="#m828ee5909c" x="188.981982" y="313.236817" style="stroke: #000000; stroke-width: 0.6"/>
      </g>
     </g>
    </g>
    <g id="xtick_20">
     <g id="line2d_20">
      <g>
       <use xlink:href="#m828ee5909c" x="199.83321" y="313.236817" style="stroke: #000000; stroke-width: 0.6"/>
      </g>
     </g>
    </g>
    <g id="xtick_21">
     <g id="line2d_21">
      <g>
       <use xlink:href="#m828ee5909c" x="210.684439" y="313.236817" style="stroke: #000000; stroke-width: 0.6"/>
      </g>
     </g>
    </g>
    <g id="xtick_22">
     <g id="line2d_22">
      <g>
       <use xlink:href="#m828ee5909c" x="232.386896" y="313.236817" style="stroke: #000000; stroke-width: 0.6"/>
      </g>
     </g>
    </g>
    <g id="xtick_23">
     <g id="line2d_23">
      <g>
       <use xlink:href="#m828ee5909c" x="243.238125" y="313.236817" style="stroke: #000000; stroke-width: 0.6"/>
      </g>
     </g>
    </g>
    <g id="xtick_24">
     <g id="line2d_24">
      <g>
       <use xlink:href="#m828ee5909c" x="254.089354" y="313.236817" style="stroke: #000000; stroke-width: 0.6"/>
      </g>
     </g>
    </g>
    <g id="xtick_25">
     <g id="line2d_25">
      <g>
       <use xlink:href="#m828ee5909c" x="264.940582" y="313.236817" style="stroke: #000000; stroke-width: 0.6"/>
      </g>
     </g>
    </g>
    <g id="xtick_26">
     <g id="line2d_26">
      <g>
       <use xlink:href="#m828ee5909c" x="286.64304" y="313.236817" style="stroke: #000000; stroke-width: 0.6"/>
      </g>
     </g>
    </g>
    <g id="xtick_27">
     <g id="line2d_27">
      <g>
       <use xlink:href="#m828ee5909c" x="297.494268" y="313.236817" style="stroke: #000000; stroke-width: 0.6"/>
      </g>
     </g>
    </g>
    <g id="xtick_28">
     <g id="line2d_28">
      <g>
       <use xlink:href="#m828ee5909c" x="308.345497" y="313.236817" style="stroke: #000000; stroke-width: 0.6"/>
      </g>
     </g>
    </g>
    <g id="xtick_29">
     <g id="line2d_29">
      <g>
       <use xlink:href="#m828ee5909c" x="319.196725" y="313.236817" style="stroke: #000000; stroke-width: 0.6"/>
      </g>
     </g>
    </g>
    <g id="xtick_30">
     <g id="line2d_30">
      <g>
       <use xlink:href="#m828ee5909c" x="340.899183" y="313.236817" style="stroke: #000000; stroke-width: 0.6"/>
      </g>
     </g>
    </g>
    <g id="xtick_31">
     <g id="line2d_31">
      <g>
       <use xlink:href="#m828ee5909c" x="351.750411" y="313.236817" style="stroke: #000000; stroke-width: 0.6"/>
      </g>
     </g>
    </g>
    <g id="xtick_32">
     <g id="line2d_32">
      <g>
       <use xlink:href="#m828ee5909c" x="362.60164" y="313.236817" style="stroke: #000000; stroke-width: 0.6"/>
      </g>
     </g>
    </g>
    <g id="xtick_33">
     <g id="line2d_33">
      <g>
       <use xlink:href="#m828ee5909c" x="373.452869" y="313.236817" style="stroke: #000000; stroke-width: 0.6"/>
      </g>
     </g>
    </g>
    <g id="xtick_34">
     <g id="line2d_34">
      <g>
       <use xlink:href="#m828ee5909c" x="395.155326" y="313.236817" style="stroke: #000000; stroke-width: 0.6"/>
      </g>
     </g>
    </g>
    <g id="xtick_35">
     <g id="line2d_35">
      <g>
       <use xlink:href="#m828ee5909c" x="406.006554" y="313.236817" style="stroke: #000000; stroke-width: 0.6"/>
      </g>
     </g>
    </g>
    <g id="xtick_36">
     <g id="line2d_36">
      <g>
       <use xlink:href="#m828ee5909c" x="416.857783" y="313.236817" style="stroke: #000000; stroke-width: 0.6"/>
      </g>
     </g>
    </g>
    <g id="xtick_37">
     <g id="line2d_37">
      <g>
       <use xlink:href="#m828ee5909c" x="427.709012" y="313.236817" style="stroke: #000000; stroke-width: 0.6"/>
      </g>
     </g>
    </g>
   </g>
   <g id="matplotlib.axis_2">
    <g id="ytick_1">
     <g id="line2d_38">
      <defs>
       <path id="m9323c3c2e3" d="M 0 0 
L -3.5 0 
" style="stroke: #000000; stroke-width: 0.8"/>
      </defs>
      <g>
       <use xlink:href="#m9323c3c2e3" x="30.103125" y="313.236817" style="stroke: #000000; stroke-width: 0.8"/>
      </g>
     </g>
     <g id="text_9">
      <!-- 0.0 -->
      <g transform="translate(7.2 317.036035) scale(0.1 -0.1)">
       <defs>
        <path id="DejaVuSans-30" d="M 2034 4250 
Q 1547 4250 1301 3770 
Q 1056 3291 1056 2328 
Q 1056 1369 1301 889 
Q 1547 409 2034 409 
Q 2525 409 2770 889 
Q 3016 1369 3016 2328 
Q 3016 3291 2770 3770 
Q 2525 4250 2034 4250 
z
M 2034 4750 
Q 2819 4750 3233 4129 
Q 3647 3509 3647 2328 
Q 3647 1150 3233 529 
Q 2819 -91 2034 -91 
Q 1250 -91 836 529 
Q 422 1150 422 2328 
Q 422 3509 836 4129 
Q 1250 4750 2034 4750 
z
" transform="scale(0.015625)"/>
        <path id="DejaVuSans-2e" d="M 684 794 
L 1344 794 
L 1344 0 
L 684 0 
L 684 794 
z
" transform="scale(0.015625)"/>
       </defs>
       <use xlink:href="#DejaVuSans-30"/>
       <use xlink:href="#DejaVuSans-2e" x="63.623047"/>
       <use xlink:href="#DejaVuSans-30" x="95.410156"/>
      </g>
     </g>
    </g>
    <g id="ytick_2">
     <g id="line2d_39">
      <g>
       <use xlink:href="#m9323c3c2e3" x="30.103125" y="265.231041" style="stroke: #000000; stroke-width: 0.8"/>
      </g>
     </g>
     <g id="text_10">
      <!-- 0.2 -->
      <g transform="translate(7.2 269.03026) scale(0.1 -0.1)">
       <use xlink:href="#DejaVuSans-30"/>
       <use xlink:href="#DejaVuSans-2e" x="63.623047"/>
       <use xlink:href="#DejaVuSans-32" x="95.410156"/>
      </g>
     </g>
    </g>
    <g id="ytick_3">
     <g id="line2d_40">
      <g>
       <use xlink:href="#m9323c3c2e3" x="30.103125" y="217.225266" style="stroke: #000000; stroke-width: 0.8"/>
      </g>
     </g>
     <g id="text_11">
      <!-- 0.4 -->
      <g transform="translate(7.2 221.024485) scale(0.1 -0.1)">
       <use xlink:href="#DejaVuSans-30"/>
       <use xlink:href="#DejaVuSans-2e" x="63.623047"/>
       <use xlink:href="#DejaVuSans-34" x="95.410156"/>
      </g>
     </g>
    </g>
    <g id="ytick_4">
     <g id="line2d_41">
      <g>
       <use xlink:href="#m9323c3c2e3" x="30.103125" y="169.219491" style="stroke: #000000; stroke-width: 0.8"/>
      </g>
     </g>
     <g id="text_12">
      <!-- 0.6 -->
      <g transform="translate(7.2 173.01871) scale(0.1 -0.1)">
       <use xlink:href="#DejaVuSans-30"/>
       <use xlink:href="#DejaVuSans-2e" x="63.623047"/>
       <use xlink:href="#DejaVuSans-36" x="95.410156"/>
      </g>
     </g>
    </g>
    <g id="ytick_5">
     <g id="line2d_42">
      <g>
       <use xlink:href="#m9323c3c2e3" x="30.103125" y="121.213716" style="stroke: #000000; stroke-width: 0.8"/>
      </g>
     </g>
     <g id="text_13">
      <!-- 0.8 -->
      <g transform="translate(7.2 125.012935) scale(0.1 -0.1)">
       <use xlink:href="#DejaVuSans-30"/>
       <use xlink:href="#DejaVuSans-2e" x="63.623047"/>
       <use xlink:href="#DejaVuSans-38" x="95.410156"/>
      </g>
     </g>
    </g>
    <g id="ytick_6">
     <g id="line2d_43">
      <g>
       <use xlink:href="#m9323c3c2e3" x="30.103125" y="73.207941" style="stroke: #000000; stroke-width: 0.8"/>
      </g>
     </g>
     <g id="text_14">
      <!-- 1.0 -->
      <g transform="translate(7.2 77.00716) scale(0.1 -0.1)">
       <use xlink:href="#DejaVuSans-31"/>
       <use xlink:href="#DejaVuSans-2e" x="63.623047"/>
       <use xlink:href="#DejaVuSans-30" x="95.410156"/>
      </g>
     </g>
    </g>
    <g id="ytick_7">
     <g id="line2d_44">
      <g>
       <use xlink:href="#m9323c3c2e3" x="30.103125" y="25.202166" style="stroke: #000000; stroke-width: 0.8"/>
      </g>
     </g>
     <g id="text_15">
      <!-- 1.2 -->
      <g transform="translate(7.2 29.001384) scale(0.1 -0.1)">
       <use xlink:href="#DejaVuSans-31"/>
       <use xlink:href="#DejaVuSans-2e" x="63.623047"/>
       <use xlink:href="#DejaVuSans-32" x="95.410156"/>
      </g>
     </g>
    </g>
    <g id="ytick_8">
     <g id="line2d_45">
      <defs>
       <path id="m1a69caafeb" d="M 0 0 
L -2 0 
" style="stroke: #000000; stroke-width: 0.6"/>
      </defs>
      <g>
       <use xlink:href="#m1a69caafeb" x="30.103125" y="301.235373" style="stroke: #000000; stroke-width: 0.6"/>
      </g>
     </g>
    </g>
    <g id="ytick_9">
     <g id="line2d_46">
      <g>
       <use xlink:href="#m1a69caafeb" x="30.103125" y="289.233929" style="stroke: #000000; stroke-width: 0.6"/>
      </g>
     </g>
    </g>
    <g id="ytick_10">
     <g id="line2d_47">
      <g>
       <use xlink:href="#m1a69caafeb" x="30.103125" y="277.232485" style="stroke: #000000; stroke-width: 0.6"/>
      </g>
     </g>
    </g>
    <g id="ytick_11">
     <g id="line2d_48">
      <g>
       <use xlink:href="#m1a69caafeb" x="30.103125" y="253.229598" style="stroke: #000000; stroke-width: 0.6"/>
      </g>
     </g>
    </g>
    <g id="ytick_12">
     <g id="line2d_49">
      <g>
       <use xlink:href="#m1a69caafeb" x="30.103125" y="241.228154" style="stroke: #000000; stroke-width: 0.6"/>
      </g>
     </g>
    </g>
    <g id="ytick_13">
     <g id="line2d_50">
      <g>
       <use xlink:href="#m1a69caafeb" x="30.103125" y="229.22671" style="stroke: #000000; stroke-width: 0.6"/>
      </g>
     </g>
    </g>
    <g id="ytick_14">
     <g id="line2d_51">
      <g>
       <use xlink:href="#m1a69caafeb" x="30.103125" y="205.223822" style="stroke: #000000; stroke-width: 0.6"/>
      </g>
     </g>
    </g>
    <g id="ytick_15">
     <g id="line2d_52">
      <g>
       <use xlink:href="#m1a69caafeb" x="30.103125" y="193.222379" style="stroke: #000000; stroke-width: 0.6"/>
      </g>
     </g>
    </g>
    <g id="ytick_16">
     <g id="line2d_53">
      <g>
       <use xlink:href="#m1a69caafeb" x="30.103125" y="181.220935" style="stroke: #000000; stroke-width: 0.6"/>
      </g>
     </g>
    </g>
    <g id="ytick_17">
     <g id="line2d_54">
      <g>
       <use xlink:href="#m1a69caafeb" x="30.103125" y="157.218047" style="stroke: #000000; stroke-width: 0.6"/>
      </g>
     </g>
    </g>
    <g id="ytick_18">
     <g id="line2d_55">
      <g>
       <use xlink:href="#m1a69caafeb" x="30.103125" y="145.216604" style="stroke: #000000; stroke-width: 0.6"/>
      </g>
     </g>
    </g>
    <g id="ytick_19">
     <g id="line2d_56">
      <g>
       <use xlink:href="#m1a69caafeb" x="30.103125" y="133.21516" style="stroke: #000000; stroke-width: 0.6"/>
      </g>
     </g>
    </g>
    <g id="ytick_20">
     <g id="line2d_57">
      <g>
       <use xlink:href="#m1a69caafeb" x="30.103125" y="109.212272" style="stroke: #000000; stroke-width: 0.6"/>
      </g>
     </g>
    </g>
    <g id="ytick_21">
     <g id="line2d_58">
      <g>
       <use xlink:href="#m1a69caafeb" x="30.103125" y="97.210828" style="stroke: #000000; stroke-width: 0.6"/>
      </g>
     </g>
    </g>
    <g id="ytick_22">
     <g id="line2d_59">
      <g>
       <use xlink:href="#m1a69caafeb" x="30.103125" y="85.209385" style="stroke: #000000; stroke-width: 0.6"/>
      </g>
     </g>
    </g>
    <g id="ytick_23">
     <g id="line2d_60">
      <g>
       <use xlink:href="#m1a69caafeb" x="30.103125" y="61.206497" style="stroke: #000000; stroke-width: 0.6"/>
      </g>
     </g>
    </g>
    <g id="ytick_24">
     <g id="line2d_61">
      <g>
       <use xlink:href="#m1a69caafeb" x="30.103125" y="49.205053" style="stroke: #000000; stroke-width: 0.6"/>
      </g>
     </g>
    </g>
    <g id="ytick_25">
     <g id="line2d_62">
      <g>
       <use xlink:href="#m1a69caafeb" x="30.103125" y="37.203609" style="stroke: #000000; stroke-width: 0.6"/>
      </g>
     </g>
    </g>
    <g id="ytick_26">
     <g id="line2d_63">
      <g>
       <use xlink:href="#m1a69caafeb" x="30.103125" y="13.200722" style="stroke: #000000; stroke-width: 0.6"/>
      </g>
     </g>
    </g>
   </g>
   <g id="line2d_64">
    <path d="M 58.767238 313.236817 
L 58.767238 73.207941 
" clip-path="url(#p0d79266b8d)" style="fill: none; stroke: #000000; stroke-linecap: square"/>
   </g>
   <g id="line2d_65">
    <path d="M 58.767238 73.207941 
L 61.474736 84.616579 
L 64.582787 96.445169 
L 67.856262 107.648265 
L 71.672665 119.330673 
L 74.801752 127.962677 
L 78.395674 136.974851 
L 81.980908 145.132098 
L 83.270489 147.884592 
L 88.096688 157.431962 
L 92.083925 164.525841 
L 95.584369 170.241616 
L 99.588969 176.264454 
L 103.038309 181.059721 
L 106.188828 185.155272 
L 110.887948 190.813181 
L 113.623145 193.882071 
L 118.012809 198.498099 
L 120.962825 201.40472 
L 126.10201 206.131438 
L 130.480065 209.853888 
L 137.06111 214.986801 
L 143.284522 219.392906 
L 148.542204 222.818565 
L 153.719939 225.956192 
L 159.527315 229.225988 
L 164.774226 231.976448 
L 171.647527 235.318191 
L 178.190826 238.253737 
L 185.895698 241.438875 
L 193.554206 244.347551 
L 201.75793 247.212735 
L 209.771085 249.790253 
L 218.59944 252.406597 
L 229.478877 255.348345 
L 239.481975 257.812753 
L 251.856025 260.58548 
L 264.60558 263.166393 
L 278.285252 265.668262 
L 291.254179 267.81971 
L 306.972351 270.179927 
L 323.063274 272.354845 
L 338.739115 274.272277 
L 358.305385 276.427175 
L 376.661763 278.242815 
L 398.089966 280.148046 
L 421.028528 281.97032 
L 438.56024 283.233207 
L 438.56024 283.233207 
" clip-path="url(#p0d79266b8d)" style="fill: none; stroke: #0000ff; stroke-linecap: square"/>
   </g>
   <g id="line2d_66">
    <path d="M 47.91601 13.200722 
L 50.454447 29.778155 
L 52.769496 43.376217 
L 55.147204 56.047999 
L 57.23613 66.237626 
L 59.104779 74.691986 
L 62.191355 87.456955 
L 65.685644 100.353498 
L 68.885959 110.936721 
L 72.460589 121.579156 
L 74.698944 127.691294 
L 78.577787 137.408239 
L 81.660881 144.434778 
L 85.916389 153.259001 
L 88.589949 158.346016 
L 90.80876 162.328434 
L 94.065198 167.815885 
L 99.167859 175.65509 
L 102.809383 180.751894 
L 105.92557 184.82279 
L 109.757854 189.498649 
L 114.151991 194.45777 
L 119.228441 199.713958 
L 124.17006 204.402171 
L 130.294247 209.701162 
L 135.551445 213.8549 
L 139.659559 216.875817 
L 146.299945 221.388684 
L 151.35053 224.547827 
L 157.795926 228.277066 
L 163.010555 231.07224 
L 171.078235 235.051881 
L 178.816683 238.522969 
L 186.012508 241.485083 
L 193.430037 244.302273 
L 200.802879 246.891498 
L 209.757652 249.7861 
L 217.807658 252.180788 
L 228.979692 255.21961 
L 238.165235 257.500415 
L 247.974982 259.746169 
L 260.66823 262.396769 
L 274.168994 264.94214 
L 288.26148 267.340699 
L 301.441179 269.377869 
L 315.917503 271.416736 
L 334.14083 273.728727 
L 351.760962 275.733444 
L 371.233574 277.724837 
L 393.711185 279.775773 
L 416.892953 281.656763 
L 438.56024 283.233207 
L 438.56024 283.233207 
" clip-path="url(#p0d79266b8d)" style="fill: none; stroke: #0000ff; stroke-width: 2; stroke-linecap: square"/>
   </g>
   <g id="patch_4">
    <path d="M 30.103125 319.237538 
L 30.103125 7.2 
" style="fill: none; stroke: #000000; stroke-width: 0.8; stroke-linejoin: miter; stroke-linecap: square"/>
   </g>
   <g id="patch_5">
    <path d="M 40.103125 313.236817 
L 446.373125 313.236817 
" style="fill: none; stroke: #000000; stroke-width: 0.8; stroke-linejoin: miter; stroke-linecap: square"/>
   </g>
  </g>
 </g>
 <defs>
  <clipPath id="p0d79266b8d">
   <rect x="40.103125" y="7.2" width="406.27" height="312.037538"/>
  </clipPath>
 </defs>
</svg>
